<mxfile host="app.diagrams.net" modified="2024-05-16T07:39:43.240Z" agent="Mozilla/5.0 (Windows NT 10.0; Win64; x64; rv:124.0) Gecko/20100101 Firefox/124.0" version="24.4.2" etag="KkxbJ_6SpYinTHU9IEyZ" type="github">
  <diagram name="Page-1" id="TgnUzE_jZd39wisrXpTl">
    <mxGraphModel>
      <root>
        <mxCell id="0" />
        <mxCell id="1" parent="0" />
      </root>
    </mxGraphModel>
  </diagram>
</mxfile>
